<svg width="639" height="639" viewBox="0 0 639 639" fill="none" xmlns="http://www.w3.org/2000/svg">
<path d="M214.816 266.297H254.305C256.569 266.297 258.741 267.197 260.343 268.798C261.944 270.399 262.844 272.571 262.844 274.836V410.379C262.844 412.643 261.944 414.816 260.343 416.417C258.741 418.018 256.569 418.918 254.305 418.918H214.816C212.552 418.918 210.38 418.018 208.778 416.417C207.177 414.816 206.277 412.643 206.277 410.379V274.836C206.277 272.571 207.177 270.399 208.778 268.798C210.38 267.197 212.552 266.297 214.816 266.297ZM293.793 221.478H333.281C335.546 221.478 337.718 222.377 339.319 223.979C340.921 225.58 341.819 227.752 341.819 230.017V383.231C341.819 385.496 340.92 387.667 339.319 389.269C337.718 390.87 335.546 391.769 333.281 391.77H332.984L332.717 391.896L293.511 410.223C291.349 410.151 289.29 409.264 287.755 407.729C286.154 406.128 285.254 403.956 285.254 401.691V230.017C285.254 227.752 286.154 225.58 287.755 223.979C289.356 222.377 291.528 221.478 293.793 221.478ZM135.84 330.466H175.328C177.593 330.466 179.765 331.365 181.366 332.967C182.967 334.568 183.867 336.74 183.867 339.004V399.52C183.867 401.784 182.967 403.956 181.366 405.558C179.839 407.085 177.791 407.971 175.64 408.05L136.457 387.577L136.167 387.426H135.84C133.575 387.426 131.403 386.526 129.802 384.925C128.201 383.324 127.301 381.152 127.301 378.888V339.004C127.301 336.74 128.201 334.568 129.802 332.967C131.403 331.365 133.575 330.466 135.84 330.466ZM223.355 404.013H245.766V283.374H223.355V404.013ZM302.332 394.185L304.355 392.961L324.1 381.016L324.742 380.626V238.556H302.332V394.185ZM144.379 376.217L144.937 376.615L164.681 390.732L166.789 392.24V347.543H144.379V376.217Z" fill="#2D6A4F" stroke="#2D6A4F" stroke-width="2.66667"/>
<path d="M237.343 63.0283C140.534 63.0284 63.0284 140.534 63.0283 237.343C63.0283 334.151 140.534 411.657 237.343 411.657C334.151 411.657 411.657 334.151 411.657 237.343C411.657 140.534 334.151 63.0283 237.343 63.0283ZM411.657 423.44L392.336 404.119L385.308 410.116C344.043 445.323 291.582 464.669 237.34 464.685C177.046 464.684 119.221 440.733 76.5869 398.099C33.9519 355.464 10 297.638 10 237.343C10 177.048 33.9519 119.222 76.5869 76.5869C119.222 33.9519 177.048 10 237.343 10C297.638 10 355.464 33.9519 398.099 76.5869C440.734 119.222 464.686 177.048 464.686 237.343C464.686 293.649 444.058 345.417 410.107 385.318L404.128 392.345L423.44 411.657H452.286L624.857 584.229L584.229 624.857L411.657 452.286V423.44Z" stroke="#2D6A4F" stroke-width="20"/>
<path d="M340.078 128.93C339.914 126.174 337.547 124.072 334.79 124.235L289.869 126.901C287.113 127.065 285.011 129.432 285.174 132.189C285.338 134.945 287.705 137.047 290.462 136.884L330.391 134.514L332.761 174.444C332.925 177.2 335.292 179.302 338.049 179.139C340.805 178.975 342.907 176.608 342.744 173.851L340.078 128.93ZM240.425 235.834L243.925 239.404C244.007 239.323 244.087 239.24 244.163 239.153L240.425 235.834ZM228.697 235.834L224.975 239.173C225.046 239.252 225.12 239.33 225.197 239.404L228.697 235.834ZM209.708 214.673L213.43 211.334C213.358 211.255 213.285 211.177 213.208 211.103L209.708 214.673ZM197.98 214.673L194.48 211.103C194.41 211.171 194.342 211.242 194.276 211.315L197.98 214.673ZM130.951 281.156C129.096 283.201 129.251 286.363 131.297 288.218C133.342 290.073 136.504 289.918 138.359 287.873L130.951 281.156ZM335.086 129.227L331.348 125.907L236.686 232.514L240.425 235.834L244.163 239.153L338.825 132.546L335.086 129.227ZM240.425 235.834L236.925 232.263C236.293 232.882 235.445 233.228 234.561 233.228V238.228V243.228C238.062 243.228 241.424 241.855 243.925 239.404L240.425 235.834ZM234.561 238.228V233.228C233.677 233.228 232.828 232.882 232.197 232.263L228.697 235.834L225.197 239.404C227.697 241.855 231.059 243.228 234.561 243.228V238.228ZM228.697 235.834L232.418 232.494L213.43 211.334L209.708 214.673L205.987 218.013L224.975 239.173L228.697 235.834ZM209.708 214.673L213.208 211.103C210.708 208.652 207.346 207.279 203.844 207.279V212.279V217.279C204.728 217.279 205.577 217.625 206.208 218.244L209.708 214.673ZM203.844 212.279V207.279C200.343 207.279 196.981 208.652 194.48 211.103L197.98 214.673L201.48 218.244C202.112 217.625 202.96 217.279 203.844 217.279V212.279ZM197.98 214.673L194.276 211.315L130.951 281.156L134.655 284.514L138.359 287.873L201.684 218.032L197.98 214.673Z" fill="#2D6A4F"/>
</svg>
