<svg width="1822" height="391" viewBox="0 0 1822 391" fill="none" xmlns="http://www.w3.org/2000/svg">
<path d="M0 23H75V129C83.6667 121.333 93.5 115.5 104.5 111.5C115.5 107.167 127.333 105 140 105C160.667 105 179.5 108.833 196.5 116.5C213.833 123.833 228.667 134 241 147C253.333 160 262.833 175.167 269.5 192.5C276.5 209.833 280 228.333 280 248V383H205V248C205 237.667 203.5 228 200.5 219C197.833 209.667 193.667 201.667 188 195C182.667 188.333 175.833 183 167.5 179C159.5 175 150.333 173 140 173C129.667 173 120.333 175 112 179C104 182.667 97.1667 188 91.5 195C86.1667 201.667 82 209.5 79 218.5C76.3333 227.5 75 237.167 75 247.5V383H0V23Z" fill="#1B4332"/>
<path d="M369.637 0C375.637 0 381.137 1.16666 386.137 3.49998C391.47 5.83333 395.97 9 399.637 13C403.637 16.6667 406.803 21.1667 409.137 26.5C411.47 31.5 412.637 37 412.637 43C412.637 49 411.47 54.6667 409.137 60C406.803 65 403.637 69.5 399.637 73.5C395.97 77.5 391.47 80.6667 386.137 83C381.137 85 375.637 86 369.637 86C357.637 86 347.47 81.8333 339.137 73.5C330.803 65.1667 326.637 55 326.637 43C326.637 37 327.637 31.5 329.637 26.5C331.97 21.1667 335.137 16.6667 339.137 13C343.137 9 347.637 5.83333 352.637 3.49998C357.97 1.16666 363.637 0 369.637 0ZM332.137 113H407.137V383H332.137V113Z" fill="#1B4332"/>
<path d="M458.926 248C458.926 228.333 462.259 209.833 468.926 192.5C475.926 175.167 485.592 160 497.926 147C510.259 134 524.926 123.833 541.926 116.5C559.259 108.833 578.259 105 598.926 105H608.926V173C598.592 173 588.759 175 579.426 179C570.426 183 562.592 188.333 555.926 195C549.259 201.667 543.926 209.667 539.926 219C535.926 228 533.926 237.667 533.926 248V383H458.926V248Z" fill="#1B4332"/>
<path d="M683.602 0C689.602 0 695.102 1.16666 700.102 3.49998C705.435 5.83333 709.935 9 713.602 13C717.602 16.6667 720.768 21.1667 723.102 26.5C725.435 31.5 726.602 37 726.602 43C726.602 49 725.435 54.6667 723.102 60C720.768 65 717.602 69.5 713.602 73.5C709.935 77.5 705.435 80.6667 700.102 83C695.102 85 689.602 86 683.602 86C671.602 86 661.435 81.8333 653.102 73.5C644.768 65.1667 640.602 55 640.602 43C640.602 37 641.602 31.5 643.602 26.5C645.935 21.1667 649.102 16.6667 653.102 13C657.102 9 661.602 5.83333 666.602 3.49998C671.935 1.16666 677.602 0 683.602 0ZM646.102 113H721.102V383H646.102V113Z" fill="#1B4332"/>
<path d="M904.391 224C914.391 225 924.057 227.333 933.391 231C943.057 234.667 951.557 239.667 958.891 246C966.557 252.333 972.724 260 977.391 269C982.057 277.667 984.391 287.667 984.391 299C984.391 313.333 981.391 326.333 975.391 338C969.391 349.333 961.224 359 950.891 367C940.891 374.667 929.224 380.5 915.891 384.5C902.891 388.833 889.057 391 874.391 391C860.057 391 846.224 388.833 832.891 384.5C819.557 380.5 807.724 374.667 797.391 367C787.391 359 779.391 349.333 773.391 338C767.391 326.333 764.391 313.333 764.391 299H839.391C839.391 310.333 843.057 318 850.391 322C858.057 326 866.057 328 874.391 328C882.724 328 890.557 325.833 897.891 321.5C905.557 317.167 909.391 310.667 909.391 302C909.391 295.667 905.724 290 898.391 285C891.057 280 881.724 276.667 870.391 275C857.391 273.333 844.557 270.167 831.891 265.5C819.557 260.833 808.557 255 798.891 248C789.557 241 781.891 233 775.891 224C770.224 214.667 767.391 204.667 767.391 194C767.391 180.333 770.224 168 775.891 157C781.557 146 789.224 136.667 798.891 129C808.891 121.333 820.391 115.5 833.391 111.5C846.391 107.167 860.057 105 874.391 105C889.057 105 902.724 107.167 915.391 111.5C928.391 115.5 939.724 121.5 949.391 129.5C959.391 137.167 967.224 146.667 972.891 158C978.557 169.333 981.391 182.333 981.391 197H906.391C906.391 191.333 905.391 186.667 903.391 183C901.724 179 899.391 176 896.391 174C893.391 171.667 889.891 170.167 885.891 169.5C882.224 168.5 878.391 168 874.391 168C866.057 168 858.557 169.833 851.891 173.5C845.557 176.833 842.391 183 842.391 192C842.391 196 844.224 199.833 847.891 203.5C851.557 206.833 856.391 210 862.391 213C868.391 215.667 875.057 218 882.391 220C889.724 221.667 897.057 223 904.391 224Z" fill="#1B4332"/>
<path d="M1096.94 23V113H1171.94V177H1096.94V248C1096.94 258.333 1098.94 268.167 1102.94 277.5C1106.94 286.5 1112.27 294.333 1118.94 301C1125.6 307.667 1133.44 313 1142.44 317C1151.77 321 1161.6 323 1171.94 323V391H1161.94C1141.27 391 1122.27 387.333 1104.94 380C1087.94 372.333 1073.27 362 1060.94 349C1048.6 336 1038.94 320.833 1031.94 303.5C1025.27 286.167 1021.94 267.667 1021.94 248V23H1096.94Z" fill="#1B4332"/>
<path d="M1347.86 105C1368.52 105 1387.86 108.833 1405.86 116.5C1423.86 123.833 1439.52 134 1452.86 147C1466.19 160 1476.69 175.167 1484.36 192.5C1492.36 209.833 1496.36 228.333 1496.36 248V383H1426.36V349.5C1417.69 362.167 1406.52 372.333 1392.86 380C1379.19 387.333 1364.19 391 1347.86 391C1327.52 391 1308.19 387.333 1289.86 380C1271.86 372.333 1256.19 362 1242.86 349C1229.52 336 1218.86 320.833 1210.86 303.5C1203.19 286.167 1199.36 267.667 1199.36 248C1199.36 228.333 1203.19 209.833 1210.86 192.5C1218.86 175.167 1229.52 160 1242.86 147C1256.19 134 1271.86 123.833 1289.86 116.5C1308.19 108.833 1327.52 105 1347.86 105ZM1349.36 323C1359.69 323 1369.36 321 1378.36 317C1387.69 313 1395.69 307.667 1402.36 301C1409.02 294.333 1414.36 286.5 1418.36 277.5C1422.36 268.167 1424.36 258.333 1424.36 248C1424.36 237.667 1422.36 228 1418.36 219C1414.36 209.667 1409.02 201.667 1402.36 195C1395.69 188.333 1387.69 183 1378.36 179C1369.36 175 1359.69 173 1349.36 173C1339.02 173 1329.19 175 1319.86 179C1310.86 183 1303.02 188.333 1296.36 195C1289.69 201.667 1284.36 209.667 1280.36 219C1276.36 228 1274.36 237.667 1274.36 248C1274.36 258.333 1276.36 268.167 1280.36 277.5C1284.36 286.5 1289.69 294.333 1296.36 301C1303.02 307.667 1310.86 313 1319.86 317C1329.19 321 1339.02 323 1349.36 323Z" fill="#1B4332"/>
<path d="M1541.45 248C1541.45 228.333 1544.78 209.833 1551.45 192.5C1558.45 175.167 1568.11 160 1580.45 147C1592.78 134 1607.45 123.833 1624.45 116.5C1641.78 108.833 1660.78 105 1681.45 105C1702.11 105 1720.95 108.833 1737.95 116.5C1755.28 123.833 1770.11 134 1782.45 147C1794.78 160 1804.28 175.167 1810.95 192.5C1817.95 209.833 1821.45 228.333 1821.45 248V383H1746.45V248C1746.45 237.667 1744.95 228 1741.95 219C1739.28 209.667 1735.11 201.667 1729.45 195C1724.11 188.333 1717.28 183 1708.95 179C1700.95 175 1691.78 173 1681.45 173C1671.11 173 1661.78 175 1653.45 179C1645.45 183 1638.61 188.333 1632.95 195C1627.61 201.667 1623.45 209.667 1620.45 219C1617.78 228 1616.45 237.667 1616.45 248V383H1541.45V248Z" fill="#1B4332"/>
</svg>
