<svg width="2094" height="348" viewBox="0 0 2094 348" fill="none" xmlns="http://www.w3.org/2000/svg">
<path d="M243.879 342.441C218 342.441 203.596 326.816 203.596 298.984V203.281H81.2812V298.984C81.2812 326.572 66.6328 342.441 40.7539 342.441C14.875 342.441 0.470703 326.816 0.470703 298.984V47.7637C0.470703 19.9316 14.875 4.30664 40.7539 4.30664C66.6328 4.30664 81.2812 20.1758 81.2812 47.7637V139.072H203.596V47.7637C203.596 19.9316 218 4.30664 243.879 4.30664C269.758 4.30664 284.406 20.1758 284.406 47.7637V298.984C284.406 326.572 269.758 342.441 243.879 342.441ZM389.875 342.441C363.996 342.441 349.104 326.572 349.104 298.984V47.7637C349.104 19.9316 363.508 4.30664 389.387 4.30664C415.266 4.30664 429.914 20.1758 429.914 47.7637V298.984C429.914 326.816 415.51 342.441 389.875 342.441ZM574.445 298.984C574.445 326.816 560.285 342.441 534.65 342.441C508.527 342.441 493.635 326.572 493.635 298.984V65.0977C493.635 25.5469 511.457 6.74805 549.787 6.74805H637.922C712.629 6.74805 758.527 46.0547 758.527 110.02C758.527 152.012 738.02 184.971 701.887 201.816L745.344 278.721C749.738 286.289 751.936 295.566 751.936 304.111C751.936 326.328 735.334 341.953 711.896 341.953C690.656 341.953 679.426 333.164 666.242 307.285L622.297 221.592H574.445V298.984ZM574.445 164.463H626.936C658.918 164.463 678.449 147.617 678.449 117.344C678.449 87.5586 659.162 70.7129 626.936 70.7129H574.445V164.463ZM850.324 342.441C824.445 342.441 809.553 326.572 809.553 298.984V47.7637C809.553 19.9316 823.957 4.30664 849.836 4.30664C875.715 4.30664 890.363 20.1758 890.363 47.7637V298.984C890.363 326.816 875.959 342.441 850.324 342.441ZM940.656 271.396C940.656 251.865 954.816 238.193 972.15 238.193C983.869 238.193 993.879 242.588 1007.31 254.551C1027.33 273.35 1051.5 283.604 1076.15 283.604C1111.07 283.604 1129.87 270.908 1129.87 247.959C1129.87 229.404 1115.22 217.93 1080.06 210.361L1034.16 199.863C974.104 187.168 944.562 156.162 944.562 105.137C944.562 41.1719 994.367 0.644531 1072.49 0.644531C1115.22 0.644531 1153.79 13.0957 1176.25 34.3359C1190.66 47.5195 1198.22 62.168 1198.22 77.0605C1198.22 94.8828 1185.53 107.09 1166.73 107.09C1156.23 107.09 1145.73 102.451 1135.48 92.6855C1118.39 73.8867 1098.62 64.1211 1073.47 64.1211C1043.93 64.1211 1025.37 77.5488 1025.37 98.5449C1025.37 116.855 1039.53 129.795 1070.54 135.898L1116.93 145.908C1178.94 158.359 1208.97 188.877 1208.97 239.414C1208.97 305.088 1155.5 347.324 1072 347.324C1026.11 347.324 985.334 334.141 962.629 312.656C948.469 299.229 940.656 285.068 940.656 271.396ZM1359.11 342.441C1333.97 342.441 1318.83 326.328 1318.83 299.961V72.9102H1255.6C1237.04 72.9102 1223.13 58.75 1223.13 39.9512C1223.13 20.9082 1237.04 6.74805 1255.6 6.74805H1463.36C1481.92 6.74805 1495.59 20.9082 1495.59 39.9512C1495.59 58.75 1481.92 72.9102 1463.36 72.9102H1399.64V299.961C1399.64 326.328 1384.26 342.441 1359.11 342.441ZM1516.1 342.686C1494.12 342.686 1478.99 329.014 1478.99 309.482C1478.99 301.426 1481.18 292.148 1486.8 275.791L1560.53 59.7266C1573.71 20.1758 1592.76 4.30664 1627.91 4.30664C1663.07 4.30664 1681.62 19.9316 1695.05 59.7266L1768.54 275.791C1772.93 289.463 1775.13 299.229 1775.13 307.773C1775.13 329.014 1759.99 342.686 1736.8 342.686C1715.31 342.686 1702.86 330.967 1694.81 303.379L1682.11 263.584H1570.05L1557.11 303.379C1549.05 331.699 1537.58 342.686 1516.1 342.686ZM1586.65 205.234H1665.75L1628.4 79.0137H1624.49L1586.65 205.234ZM1893.29 300.449C1893.29 326.816 1879.87 342.441 1856.18 342.441C1832.5 342.441 1818.59 326.572 1818.59 300.449V51.6699C1818.59 20.4199 1832.01 4.30664 1858.62 4.30664C1876.45 4.30664 1886.7 13.0957 1902.81 36.5332L2015.12 204.014H2018.29V46.2988C2018.29 19.9316 2031.96 4.30664 2055.4 4.30664C2079.08 4.30664 2093.24 19.9316 2093.24 46.2988V297.52C2093.24 326.816 2080.06 342.441 2055.4 342.441C2037.34 342.441 2026.35 334.873 2009.75 310.459L1896.47 140.781H1893.29V300.449Z" fill="#2D6A4F"/>
</svg>
