<svg width="1860" height="391" viewBox="0 0 1860 391" fill="none" xmlns="http://www.w3.org/2000/svg">
<path d="M0 383V23H80V162H235V23H315V383H235V234H80V383H0Z" fill="#2D6A4F"/>
<path d="M407.234 0C413.234 0 418.734 1.16666 423.734 3.49998C429.068 5.83333 433.568 9 437.234 13C441.234 16.6667 444.401 21.1667 446.734 26.5C449.068 31.5 450.234 37 450.234 43C450.234 49 449.068 54.6667 446.734 60C444.401 65 441.234 69.5 437.234 73.5C433.568 77.5 429.068 80.6667 423.734 83C418.734 85 413.234 86 407.234 86C395.234 86 385.068 81.8333 376.734 73.5C368.401 65.1667 364.234 55 364.234 43C364.234 37 365.234 31.5 367.234 26.5C369.568 21.1667 372.734 16.6667 376.734 13C380.734 9 385.234 5.83333 390.234 3.49998C395.568 1.16666 401.234 0 407.234 0ZM369.734 113H444.734V383H369.734V113Z" fill="#2D6A4F"/>
<path d="M496.523 248C496.523 228.333 499.857 209.833 506.523 192.5C513.523 175.167 523.19 160 535.523 147C547.857 134 562.523 123.833 579.523 116.5C596.857 108.833 615.857 105 636.523 105H646.523V173C636.19 173 626.357 175 617.023 179C608.023 183 600.19 188.333 593.523 195C586.857 201.667 581.523 209.667 577.523 219C573.523 228 571.523 237.667 571.523 248V383H496.523V248Z" fill="#2D6A4F"/>
<path d="M721.199 0C727.199 0 732.699 1.16666 737.699 3.49998C743.033 5.83333 747.533 9 751.199 13C755.199 16.6667 758.366 21.1667 760.699 26.5C763.033 31.5 764.199 37 764.199 43C764.199 49 763.033 54.6667 760.699 60C758.366 65 755.199 69.5 751.199 73.5C747.533 77.5 743.033 80.6667 737.699 83C732.699 85 727.199 86 721.199 86C709.199 86 699.033 81.8333 690.699 73.5C682.366 65.1667 678.199 55 678.199 43C678.199 37 679.199 31.5 681.199 26.5C683.533 21.1667 686.699 16.6667 690.699 13C694.699 9 699.199 5.83333 704.199 3.49998C709.533 1.16666 715.199 0 721.199 0ZM683.699 113H758.699V383H683.699V113Z" fill="#2D6A4F"/>
<path d="M941.988 224C951.988 225 961.655 227.333 970.988 231C980.655 234.667 989.155 239.667 996.488 246C1004.15 252.333 1010.32 260 1014.99 269C1019.65 277.667 1021.99 287.667 1021.99 299C1021.99 313.333 1018.99 326.333 1012.99 338C1006.99 349.333 998.822 359 988.488 367C978.488 374.667 966.822 380.5 953.488 384.5C940.488 388.833 926.655 391 911.988 391C897.655 391 883.822 388.833 870.488 384.5C857.155 380.5 845.322 374.667 834.988 367C824.988 359 816.988 349.333 810.988 338C804.988 326.333 801.988 313.333 801.988 299H876.988C876.988 310.333 880.655 318 887.988 322C895.655 326 903.655 328 911.988 328C920.322 328 928.155 325.833 935.488 321.5C943.155 317.167 946.988 310.667 946.988 302C946.988 295.667 943.322 290 935.988 285C928.655 280 919.322 276.667 907.988 275C894.988 273.333 882.155 270.167 869.488 265.5C857.155 260.833 846.155 255 836.488 248C827.155 241 819.488 233 813.488 224C807.822 214.667 804.988 204.667 804.988 194C804.988 180.333 807.822 168 813.488 157C819.155 146 826.822 136.667 836.488 129C846.488 121.333 857.988 115.5 870.988 111.5C883.988 107.167 897.655 105 911.988 105C926.655 105 940.322 107.167 952.988 111.5C965.988 115.5 977.322 121.5 986.988 129.5C996.988 137.167 1004.82 146.667 1010.49 158C1016.15 169.333 1018.99 182.333 1018.99 197H943.988C943.988 191.333 942.988 186.667 940.988 183C939.322 179 936.988 176 933.988 174C930.988 171.667 927.488 170.167 923.488 169.5C919.822 168.5 915.988 168 911.988 168C903.655 168 896.155 169.833 889.488 173.5C883.155 176.833 879.988 183 879.988 192C879.988 196 881.822 199.833 885.488 203.5C889.155 206.833 893.988 210 899.988 213C905.988 215.667 912.655 218 919.988 220C927.322 221.667 934.655 223 941.988 224Z" fill="#2D6A4F"/>
<path d="M1134.54 23V113H1209.54V177H1134.54V248C1134.54 258.333 1136.54 268.167 1140.54 277.5C1144.54 286.5 1149.87 294.333 1156.54 301C1163.2 307.667 1171.04 313 1180.04 317C1189.37 321 1199.2 323 1209.54 323V391H1199.54C1178.87 391 1159.87 387.333 1142.54 380C1125.54 372.333 1110.87 362 1098.54 349C1086.2 336 1076.54 320.833 1069.54 303.5C1062.87 286.167 1059.54 267.667 1059.54 248V23H1134.54Z" fill="#2D6A4F"/>
<path d="M1385.45 105C1406.12 105 1425.45 108.833 1443.45 116.5C1461.45 123.833 1477.12 134 1490.45 147C1503.79 160 1514.29 175.167 1521.95 192.5C1529.95 209.833 1533.95 228.333 1533.95 248V383H1463.95V349.5C1455.29 362.167 1444.12 372.333 1430.45 380C1416.79 387.333 1401.79 391 1385.45 391C1365.12 391 1345.79 387.333 1327.45 380C1309.45 372.333 1293.79 362 1280.45 349C1267.12 336 1256.45 320.833 1248.45 303.5C1240.79 286.167 1236.95 267.667 1236.95 248C1236.95 228.333 1240.79 209.833 1248.45 192.5C1256.45 175.167 1267.12 160 1280.45 147C1293.79 134 1309.45 123.833 1327.45 116.5C1345.79 108.833 1365.12 105 1385.45 105ZM1386.95 323C1397.29 323 1406.95 321 1415.95 317C1425.29 313 1433.29 307.667 1439.95 301C1446.62 294.333 1451.95 286.5 1455.95 277.5C1459.95 268.167 1461.95 258.333 1461.95 248C1461.95 237.667 1459.95 228 1455.95 219C1451.95 209.667 1446.62 201.667 1439.95 195C1433.29 188.333 1425.29 183 1415.95 179C1406.95 175 1397.29 173 1386.95 173C1376.62 173 1366.79 175 1357.45 179C1348.45 183 1340.62 188.333 1333.95 195C1327.29 201.667 1321.95 209.667 1317.95 219C1313.95 228 1311.95 237.667 1311.95 248C1311.95 258.333 1313.95 268.167 1317.95 277.5C1321.95 286.5 1327.29 294.333 1333.95 301C1340.62 307.667 1348.45 313 1357.45 317C1366.79 321 1376.62 323 1386.95 323Z" fill="#2D6A4F"/>
<path d="M1579.04 248C1579.04 228.333 1582.38 209.833 1589.04 192.5C1596.04 175.167 1605.71 160 1618.04 147C1630.38 134 1645.04 123.833 1662.04 116.5C1679.38 108.833 1698.38 105 1719.04 105C1739.71 105 1758.54 108.833 1775.54 116.5C1792.88 123.833 1807.71 134 1820.04 147C1832.38 160 1841.88 175.167 1848.54 192.5C1855.54 209.833 1859.04 228.333 1859.04 248V383H1784.04V248C1784.04 237.667 1782.54 228 1779.54 219C1776.88 209.667 1772.71 201.667 1767.04 195C1761.71 188.333 1754.88 183 1746.54 179C1738.54 175 1729.38 173 1719.04 173C1708.71 173 1699.38 175 1691.04 179C1683.04 183 1676.21 188.333 1670.54 195C1665.21 201.667 1661.04 209.667 1658.04 219C1655.38 228 1654.04 237.667 1654.04 248V383H1579.04V248Z" fill="#2D6A4F"/>
</svg>
