<svg width="626" height="624" viewBox="0 0 626 624" fill="none" xmlns="http://www.w3.org/2000/svg">
<path fill-rule="evenodd" clip-rule="evenodd" d="M476.406 129.928L253.091 31.1492L29.7754 129.928V270.521C29.7754 405.5 125.652 530.378 253.091 562.369C285.05 554.346 315.025 540.481 342 522.08V555.134C314.659 571.414 284.788 583.774 253.091 591.273C107.191 556.756 0 419.251 0 270.521V112.249L253.091 0L506.182 112.249V270.521C506.182 280.406 505.708 290.241 504.781 300C501.051 339.28 489.975 377.32 472.864 412.364H440.096C458.643 377.799 470.806 339.616 474.887 300C475.892 290.249 476.406 280.412 476.406 270.521V129.928Z" fill="#2D6A4F"/>
<path d="M478.909 284.727C504.756 284.727 529.544 294.939 547.82 313.118C566.096 331.297 576.364 355.952 576.364 381.661V397.817H608.849C613.156 397.817 617.288 399.519 620.334 402.549C623.38 405.579 625.092 409.688 625.092 413.973V607.843C625.092 612.128 623.38 616.238 620.334 619.268C617.288 622.297 613.156 623.999 608.849 623.999H348.97C344.662 623.999 340.531 622.297 337.485 619.268C334.439 616.238 332.728 612.128 332.728 607.843V413.973C332.728 409.688 334.439 405.579 337.485 402.549C340.531 399.519 344.662 397.817 348.97 397.817H381.455V381.661C381.455 355.952 391.723 331.297 409.999 313.118C428.275 294.939 453.063 284.727 478.909 284.727ZM365.213 591.688H592.606V430.129H365.213V591.688ZM478.909 462.44C486.06 462.441 493.012 464.788 498.685 469.118C504.357 473.448 508.435 479.519 510.286 486.39C512.137 493.26 511.657 500.545 508.921 507.116C506.185 513.687 501.345 519.178 495.152 522.734V559.376H462.667V522.734C456.474 519.178 451.635 513.688 448.898 507.116C446.162 500.545 445.683 493.26 447.533 486.39C449.384 479.519 453.462 473.448 459.135 469.118C464.808 464.788 471.759 462.441 478.909 462.44ZM478.909 474.545C468.065 474.545 459.274 483.336 459.273 494.181C459.273 502.73 464.738 510.002 472.364 512.698V549.817H485.455V512.697C493.081 510.001 498.546 502.73 498.546 494.181C498.546 483.336 489.754 474.545 478.909 474.545ZM478.909 317.038C461.678 317.038 445.153 323.847 432.969 335.966C420.785 348.085 413.94 364.522 413.939 381.661V397.817H543.879V381.661C543.879 364.522 537.034 348.085 524.85 335.966C512.665 323.847 496.14 317.038 478.909 317.038Z" fill="#2D6A4F"/>
<path d="M190.004 207.363V360.09H162.337V207.363H190.004ZM219.964 360.09V207.363H277.237C288.97 207.363 298.814 209.55 306.768 213.925C314.773 218.3 320.813 224.316 324.89 231.972C329.016 239.578 331.079 248.229 331.079 257.924C331.079 267.718 329.016 276.418 324.89 284.025C320.763 291.631 314.673 297.622 306.619 301.997C298.565 306.322 288.647 308.485 276.864 308.485H238.906V285.74H273.135C279.996 285.74 285.614 284.547 289.989 282.16C294.364 279.774 297.596 276.493 299.684 272.316C301.822 268.14 302.89 263.343 302.89 257.924C302.89 252.505 301.822 247.732 299.684 243.605C297.596 239.479 294.339 236.272 289.915 233.985C285.54 231.649 279.897 230.48 272.986 230.48H247.631V360.09H219.964Z" fill="#2D6A4F"/>
</svg>
