<svg width="559" height="655" viewBox="0 0 559 655" fill="none" xmlns="http://www.w3.org/2000/svg">
<path d="M480 112L377 9M480 112H402C388.193 112 377 100.807 377 87V9M480 112V274M377 9L33.0678 8.06793C19.2342 8.03045 8 19.2343 8 33.0678V610C8 623.807 19.1929 635 33 635H279M78.5 530.5H237M78.5 456.5H237M78.5 383H237M78.5 310H237M238 194H405M325.5 320H504.5V382.5H325.5V320ZM325.5 423H361.5V459.5H325.5V423ZM397.5 423H433.5V459.5H397.5V423ZM468.5 423H504.5V459.5H468.5V423ZM325.5 494H361.5V530.5H325.5V494ZM397.5 494H433.5V530.5H397.5V494ZM325.5 564H361.5V600.5H325.5V564ZM397.5 564H433.5V600.5H397.5V564ZM468.5 494H504.5V600.5H468.5V494ZM551 299V622C551 635.807 539.807 647 526 647H304C290.193 647 279 635.807 279 622V299C279 285.193 290.193 274 304 274H526C539.807 274 551 285.193 551 299Z" stroke="#2D6A4F" stroke-width="15" stroke-linecap="round" stroke-linejoin="round"/>
<path d="M183.975 193.079C183.975 164.666 164.406 155.957 142.738 151.162C142.121 151.025 141.502 150.892 140.882 150.761L129.013 148.369C125.289 147.641 122.295 146.839 119.888 145.963C110.948 142.71 110.107 138.432 110.107 133.09C110.107 127.312 113.543 123.061 119.683 120.823C122.894 119.653 126.843 119.033 131.426 119.033C136.038 119.033 139.649 119.706 142.492 120.805C149.397 123.476 151.776 128.666 152.967 132.87L153.127 133.363C155.115 138.539 159.735 141.626 165.501 141.626C166.993 141.626 168.336 141.399 169.339 141.197C175.526 139.972 179.835 135.072 179.835 129.268C179.835 127.829 179.574 126.402 179.047 125.014C175.877 114.871 166.969 98.9063 142.285 95.2618V77.8666C142.285 63.3778 119.477 63.3778 119.477 77.8666V95.366C92.9619 99.4943 83.1982 117.441 83.1982 133.084C83.1982 160.342 101.468 168.774 120.107 172.946C120.931 173.131 121.755 173.307 122.579 173.476L135.418 176.189C138.286 176.77 140.783 177.376 142.955 178.018C154.634 181.472 156.925 185.981 156.925 193.226C156.925 201.067 151.951 206.543 143.205 208.814C140.236 209.586 136.833 209.988 133.042 209.988C127.787 209.988 123.664 209.35 120.393 208.227C111.576 205.201 108.947 198.644 107.017 191.52C105.468 186.115 100.559 182.633 94.504 182.633C93.1835 182.633 92.1247 182.808 90.8472 183.025L90.4625 183.098C84.2016 184.578 80 189.484 80 195.3C80 196.405 80.197 197.345 80.3571 198.105L80.5541 198.975C83.3705 208.447 89.5883 229.134 120.6 233.75V251.956C120.6 259.206 126.332 263 132.002 263C137.671 263 143.409 259.206 143.409 251.956V234.068C168.034 230.877 184 215.224 184 193.082" fill="#2D6A4F"/>
<path d="M122.579 173.476C121.755 173.307 120.931 173.131 120.107 172.946L120.393 208.227C123.664 209.35 127.787 209.988 133.042 209.988C136.833 209.988 140.236 209.586 143.205 208.814L142.955 178.018C140.783 177.376 138.286 176.77 135.418 176.189L122.579 173.476Z" fill="#2D6A4F"/>
<path d="M140.882 150.761C141.502 150.892 142.121 151.025 142.738 151.162L142.492 120.805C139.649 119.706 136.038 119.033 131.426 119.033C126.843 119.033 122.894 119.653 119.683 120.823L119.888 145.963C122.295 146.839 125.289 147.641 129.013 148.369L140.882 150.761Z" fill="#2D6A4F"/>
</svg>
