<svg width="581" height="647" viewBox="0 0 581 647" fill="none" xmlns="http://www.w3.org/2000/svg">
<path d="M218.834 65.875H251.389" stroke="#2D6A4F" stroke-width="15" stroke-linecap="round"/>
<path d="M461.705 299.447V99.1445C461.705 85.3374 450.512 74.1445 436.705 74.1445H362.748M375.408 615.697H33C19.1929 615.697 8 604.504 8 590.697V99.1445C8 85.3374 19.1929 74.1445 33 74.1445H106.699" stroke="#2D6A4F" stroke-width="15" stroke-linecap="round" stroke-linejoin="round"/>
<path d="M358.523 122.718H111.183C108.421 122.718 106.183 120.48 106.183 117.718V72.2729C106.183 58.4658 117.375 47.2729 131.183 47.2729H171.46C174.222 47.2729 176.46 45.0343 176.46 42.2729V38C176.46 21.4315 189.892 8 206.46 8H262.212C278.781 8 292.212 21.4315 292.212 38V43.3064C292.212 46.0678 294.451 48.3064 297.212 48.3064H338.523C352.331 48.3064 363.523 59.4993 363.523 73.3064V117.718C363.523 120.48 361.285 122.718 358.523 122.718Z" stroke="#2D6A4F" stroke-width="15" stroke-linecap="round" stroke-linejoin="round"/>
<path d="M411.773 271.106C414.48 271.113 417.149 271.752 419.567 272.976L419.569 272.977L569.186 348.42C571.819 349.747 574.076 351.725 575.744 354.168C577.308 356.458 578.307 359.088 578.661 361.839L578.723 362.391C579.427 369.734 594.242 544.627 420.337 643.394H420.336C417.765 644.856 414.866 645.638 411.913 645.666C409.144 645.692 406.411 645.054 403.939 643.809L403.449 643.552C222.48 544.643 243.627 363.574 243.858 361.835L243.859 361.826C244.591 356.045 248.166 351.012 253.349 348.381L253.348 348.38L403.97 272.94L403.971 272.941C406.395 271.729 409.066 271.1 411.773 271.106ZM557.832 369.998L557.116 369.624L412.36 294.103L411.748 293.782L411.134 294.099L263.975 369.847L263.252 370.22V371.032C263.252 408.206 267.833 453.26 288.604 498.528C309.383 543.816 346.328 589.234 410.918 627.183L411.607 627.588L412.29 627.171C473.696 589.582 510.115 547.931 531.163 504.398C552.205 460.88 557.832 415.588 557.832 370.807V369.998Z" fill="#2D6A4F" stroke="#2D6A4F" stroke-width="2.66667"/>
<path d="M337.686 454.986L388.327 504.594L492.71 398.66" stroke="#2D6A4F" stroke-width="15" stroke-linecap="round" stroke-linejoin="round"/>
<path d="M66.9092 234.336H370.241M66.9092 308.748H233.819M66.9092 383.16H186.278" stroke="#2D6A4F" stroke-width="15" stroke-linecap="round"/>
</svg>
